HIERARCHY
ROOT Hips
{
	OFFSET 0.000000 0.000000 0.000000 
	CHANNELS 6 Xposition Yposition Zposition Zrotation Yrotation Xrotation
	JOINT LeftUpLeg
	{
		OFFSET 1.363060 -1.794630 0.839290 
		CHANNELS 3 Zrotation Yrotation Xrotation
		JOINT LeftLeg
		{
			OFFSET 2.448110 -6.726130 0.000000 
			CHANNELS 3 Zrotation Yrotation Xrotation
			JOINT LeftFoot
			{
				OFFSET 2.562200 -7.039590 0.000000 
				CHANNELS 3 Zrotation Yrotation Xrotation
				JOINT LeftToeBase
				{
					OFFSET 0.157640 -0.433110 2.322550 
					CHANNELS 3 Zrotation Yrotation Xrotation
					End Site
					{
						OFFSET 0.000000 0.000000 0.000000 
					}
				}
			}
		}
	}
	JOINT RightUpLeg
	{
		OFFSET -1.305520 -1.794630 0.839290 
		CHANNELS 3 Zrotation Yrotation Xrotation
		JOINT RightLeg
		{
			OFFSET -2.542530 -6.985550 0.000000 
			CHANNELS 3 Zrotation Yrotation Xrotation
			JOINT RightFoot
			{
				OFFSET -2.568260 -7.056230 0.000000 
				CHANNELS 3 Zrotation Yrotation Xrotation
				JOINT RightToeBase
				{
					OFFSET -0.164730 -0.452590 2.363150 
					CHANNELS 3 Zrotation Yrotation Xrotation
					End Site
					{
						OFFSET 0.000000 0.000000 0.000000 
					}
				}
			}
		}
	}
	JOINT Spine
	{
		OFFSET 0.028270 2.035590 -0.193380 
		CHANNELS 3 Zrotation Yrotation Xrotation
		JOINT Spine1
		{
			OFFSET 0.056720 2.048850 -0.042750 
			CHANNELS 3 Zrotation Yrotation Xrotation
			JOINT Neck1
			{
				OFFSET -0.054170 1.746240 0.172020 
				CHANNELS 3 Zrotation Yrotation Xrotation
				JOINT Head
				{
					OFFSET 0.104070 1.761360 -0.123970 
					CHANNELS 3 Zrotation Yrotation Xrotation
					End Site
					{
						OFFSET 0.000000 0.000000 0.000000 
					}
				}
			}
			JOINT LeftArm
			{
				OFFSET 3.362410 1.200890 -0.311210 
				CHANNELS 3 Zrotation Yrotation Xrotation
				JOINT LeftForeArm
				{
					OFFSET 4.983000 -0.000000 -0.000000 
					CHANNELS 3 Zrotation Yrotation Xrotation
					JOINT LeftHand
					{
						OFFSET 3.483560 -0.000000 -0.000000 
						CHANNELS 3 Zrotation Yrotation Xrotation
						JOINT LeftHandIndex1
						{
							OFFSET 0.715260 -0.000000 -0.000000 
							CHANNELS 3 Zrotation Yrotation Xrotation
							End Site
							{
								OFFSET 0.000000 0.000000 0.000000 
							}
						}
					}
				}
			}
			JOINT RightArm
			{
				OFFSET -3.136600 1.374050 -0.404650 
				CHANNELS 3 Zrotation Yrotation Xrotation
				JOINT RightForeArm
				{
					OFFSET -5.241900 -0.000000 -0.000000 
					CHANNELS 3 Zrotation Yrotation Xrotation
					JOINT RightHand
					{
						OFFSET -3.444170 -0.000000 -0.000000 
						CHANNELS 3 Zrotation Yrotation Xrotation
						JOINT RightHandIndex1
						{
							OFFSET -0.622530 -0.000000 -0.000000 
							CHANNELS 3 Zrotation Yrotation Xrotation
							End Site
							{
								OFFSET 0.000000 0.000000 0.000000 
							}
						}
					}
				}
			}
		}
	}
}
MOTION
Frames: 12
Frame Time: 0.041667
40.757340 17.319547 -2.006161 179.544992 62.831924 -178.384594 -23.923809 -0.864713 -16.381113 3.375303 15.289271 39.680580 0.688316 -0.267766 -9.279238 1.053200 6.525700 18.317700 16.939831 -8.481370 -17.263043 -6.403212 -16.548522 48.432389 -0.259115 -9.890622 -21.521483 -0.020500 0.924700 -2.541700 -0.613647 4.976353 1.758407 -0.406013 3.055154 3.683641 -8.961239 26.136165 10.125911 -4.495500 11.508100 14.109400 -69.571908 -8.189582 41.930022 25.433909 -39.639722 -10.300789 -0.460765 0.031490 -25.132922 -7.125000 0.000000 0.000000 64.468260 1.038603 31.686832 -23.611481 35.924530 -8.916069 1.246276 0.971747 -21.456502 7.125000 0.000000 0.000000 
40.873978 17.311426 -2.015757 178.918088 61.083464 -178.961814 -24.160230 -1.559641 -15.864279 3.388383 15.346959 39.786487 0.794836 -0.914217 -8.774510 1.007300 6.386100 17.908900 16.885736 -6.341605 -18.173908 -6.024345 -16.270766 46.957523 -0.323392 -9.612551 -21.760089 -0.021100 0.937500 -2.577000 -0.655295 5.086562 1.728121 -0.542455 3.147588 3.277580 -9.102013 26.496417 9.891945 -4.510200 11.691600 14.080700 -69.334807 -8.304057 42.384888 25.640343 -39.780787 -10.405902 -0.435587 0.058788 -25.611376 -7.125000 0.000000 0.000000 64.389792 0.906765 31.994821 -24.103044 36.330665 -9.152163 1.265379 0.934890 -21.409120 7.125000 0.000000 0.000000 
41.002428 17.310161 -2.035584 178.576274 59.138098 -179.161743 -24.307680 -2.209605 -15.310323 3.367169 15.353367 39.736932 0.896179 -1.527919 -8.349392 0.877300 5.971300 16.701200 16.722707 -4.578432 -19.136757 -5.696896 -16.009700 45.631978 -0.402582 -8.711841 -21.429490 -0.043600 1.347700 -3.706100 -0.669618 5.189994 1.733029 -0.684198 3.224129 3.162401 -9.101849 26.851497 9.789871 -4.418800 11.850500 14.099300 -69.388220 -8.478416 42.546955 25.783953 -39.876804 -10.480709 -0.405984 0.084218 -25.610505 -7.125000 0.000000 0.000000 64.164974 0.870839 31.900043 -24.570561 36.726107 -9.416659 1.258255 0.945599 -21.938737 7.125000 0.000000 0.000000 
41.143639 17.302673 -2.064796 177.151930 56.903323 179.694119 -25.155547 -3.109199 -14.445196 3.290003 15.341701 39.503950 1.051248 -2.485700 -7.805123 0.967300 6.261700 17.545800 15.546749 -3.312240 -20.034097 -5.458324 -15.720173 44.545408 -0.479520 -7.529124 -20.771018 -0.067000 1.669500 -4.593200 -0.748838 5.146164 1.790504 -0.720614 3.220252 3.219500 -9.359153 27.233945 9.468484 -4.482000 12.045200 14.024900 -69.486074 -8.118515 42.268333 26.239742 -40.272971 -10.783686 -0.369892 0.100202 -25.130728 -7.125000 0.000000 0.000000 64.045207 0.844560 31.726289 -24.992297 37.080422 -9.653910 1.255891 0.937787 -22.427107 7.125000 0.000000 0.000000 
41.279471 17.312692 -2.093903 175.610269 54.530581 178.395573 -26.169751 -4.123230 -13.433116 3.189458 15.304870 39.175270 1.186306 -3.386135 -7.234111 1.172900 6.874100 19.342900 14.056540 -2.043827 -20.561028 -5.244494 -15.419571 43.517300 -0.556629 -6.253676 -20.154494 -0.081400 1.840700 -5.065600 -0.857591 5.015620 1.839975 -0.809906 3.184334 3.167457 -9.700542 27.562057 9.034026 -4.606700 12.230200 13.861100 -69.486588 -7.867059 42.067453 26.439181 -40.451014 -10.929523 -0.363210 0.109162 -24.989477 -7.125000 0.000000 0.000000 63.966187 0.703513 31.669123 -25.465854 37.486380 -9.928308 1.258876 0.929292 -22.618170 7.125000 0.000000 0.000000 
41.405179 17.312059 -2.109300 176.195702 52.089662 179.050227 -25.866777 -4.890764 -12.648992 3.072996 15.155455 38.688586 1.273587 -4.047498 -6.467854 1.240700 7.063000 19.902100 14.001775 -0.469828 -21.141910 -5.023930 -15.261066 42.594006 -0.613796 -5.127261 -19.737595 -0.180300 2.735100 -7.542100 -0.803641 4.899590 1.859242 -1.032048 3.152748 3.158858 -9.899235 27.782775 8.666191 -4.633000 12.341700 13.671200 -69.921314 -8.760306 41.842681 25.703466 -39.799046 -10.463581 -0.384374 0.124964 -24.840995 -7.125000 0.000000 0.000000 63.322788 0.764362 32.308035 -25.610101 37.625575 -10.016779 1.241881 0.981549 -23.313413 7.125000 0.000000 0.000000 
41.533734 17.319336 -2.113519 176.442236 49.945418 179.411970 -25.628869 -5.570119 -12.013922 2.990753 15.050713 38.354206 1.375929 -4.854175 -5.551999 1.407500 7.504100 21.217700 13.773781 1.472833 -21.544422 -4.792600 -15.089898 41.617619 -0.629019 -4.152579 -19.045485 -0.414500 4.132600 -11.450000 -0.762059 5.064310 1.867578 -1.101784 3.250559 3.104243 -9.936120 27.882076 8.427128 -4.578600 12.383600 13.510600 -70.035618 -8.890827 41.907741 25.689850 -39.773195 -10.441246 -0.392616 0.117747 -24.964457 -7.125000 0.000000 0.000000 62.852670 0.733702 32.192818 -25.744767 37.740950 -10.121512 1.222979 1.020530 -23.402650 7.125000 0.000000 0.000000 
41.680218 17.320918 -2.116050 175.625326 47.795086 178.893509 -26.107256 -6.168312 -11.457915 2.973094 15.067851 38.338917 1.488097 -5.768335 -4.749475 1.520200 7.785700 22.065000 12.648157 3.448949 -21.630751 -4.557917 -14.822949 40.525947 -0.629002 -3.242077 -18.234193 -0.638800 5.113600 -14.232700 -0.809989 5.273476 1.865264 -1.003787 3.361520 3.032689 -9.681212 27.872476 8.341787 -4.393100 12.366900 13.374900 -70.147996 -8.597220 41.807573 25.651964 -39.760436 -10.430326 -0.383075 0.128124 -25.043854 -7.125000 0.000000 0.000000 62.581323 0.574526 32.011771 -25.806852 37.789321 -10.174074 1.215304 1.032668 -23.380530 7.125000 0.000000 0.000000 
41.842099 17.325980 -2.125857 175.976191 44.897371 179.314848 -25.727843 -7.080906 -10.913492 2.991955 15.077054 38.436276 1.620319 -6.858490 -3.867592 1.534000 7.819300 22.166600 12.300614 4.750646 -21.381981 -4.319464 -14.557406 39.396846 -0.649464 -2.154753 -17.706660 -0.670300 5.235700 -14.582000 -0.749105 5.077191 1.857338 -1.030075 3.268621 3.151962 -9.281886 27.734169 8.355729 -4.148400 12.273700 13.280100 -70.419216 -8.483676 41.201378 25.201410 -39.402355 -10.195326 -0.371861 0.153454 -24.814636 -7.125000 0.000000 0.000000 62.236079 0.525037 32.223681 -25.771852 37.768540 -10.160716 1.205124 1.056638 -23.453038 7.125000 0.000000 0.000000 
42.001343 17.347599 -2.136931 176.628007 41.845282 179.823435 -25.009064 -8.020354 -10.501454 3.022978 15.079152 38.570234 1.742410 -7.948988 -2.940310 1.417700 7.530200 21.295900 12.224863 5.889259 -20.628131 -4.103922 -14.286901 38.293844 -0.686018 -0.292170 -17.107495 -0.494200 4.507300 -12.508500 -0.645257 4.837466 1.842745 -1.264241 3.167362 3.145489 -9.282473 27.897326 8.801395 -4.180600 12.325800 13.885000 -70.668941 -8.331993 40.579696 24.779233 -39.058680 -9.970547 -0.372510 0.161096 -24.451196 -7.125000 0.000000 0.000000 62.025815 0.467981 32.006877 -25.612761 37.628988 -10.087230 1.192089 1.078091 -23.244993 7.125000 0.000000 0.000000 
42.159005 17.340428 -2.139462 176.426846 38.930794 179.672336 -24.952405 -8.707556 -9.931610 3.014000 15.063173 38.570961 1.865563 -9.249759 -1.813309 1.508800 7.757700 21.980500 11.397869 7.261991 -19.880994 -3.953673 -14.033662 37.411832 -0.677993 1.795241 -16.140345 -0.388200 4.001100 -11.079800 -0.630402 4.709531 1.834615 -1.367321 3.136209 2.843192 -10.076962 27.275898 7.878181 -4.875700 12.190100 13.263000 -70.657851 -7.940740 40.441070 24.560647 -38.907274 -9.855219 -0.408433 0.138698 -24.973665 -7.125000 0.000000 0.000000 61.927526 0.246122 31.545471 -25.358327 37.430340 -9.971750 1.187609 1.080319 -22.913621 7.125000 0.000000 0.000000 
42.324577 17.363312 -2.145789 176.000485 36.060405 179.386171 -25.057567 -9.322104 -9.258180 2.972962 15.014925 38.445584 1.942850 -10.291372 -0.691893 1.593400 7.962100 22.599100 10.442640 8.517636 -19.257288 -3.838270 -13.800543 36.659858 -0.620351 3.776092 -14.944049 -0.489300 4.485000 -12.445300 -0.642802 4.535712 1.804479 -1.363453 3.065337 2.711151 -9.861194 26.933487 7.708905 -4.805700 12.042700 13.011200 -70.454251 -7.374853 40.531449 24.637479 -39.013480 -9.921545 -0.484373 0.106085 -26.524275 -7.125000 0.000000 0.000000 61.903479 0.119656 31.202856 -25.052723 37.170392 -9.813450 1.198016 1.067349 -22.516405 7.125000 0.000000 0.000000 
